<svg version="1.1" id="Layer_1" xmlns="http://www.w3.org/2000/svg" xmlns:xlink="http://www.w3.org/1999/xlink" viewBox="0 0 512 512" xml:space="preserve">
  <style type="text/css">
    .st0{fill:#FFFFFF;}
    .st1{fill:#000000;}
  </style>
  <g>
    <path class="st0" d="M255.999,0c-6.627,0-12,5.373-12,12v110.435c-48.215,18.992-81.99,66.305-81.99,121.139 c0,19.843,3.584,38.759,10.11,56.076L36.617,457.083c-5.159,8.791-1.422,20.088,8.548,23.94c1.574,0.616,3.194,0.915,4.798,0.915 c7.251,0,14.155-4.234,17.435-11.188l77.947-167.435c16.03,24.251,36.49,45.388,60.654,62.609v135.495 c0,6.627,5.373,12,12,12c6.627,0,12-5.373,12-12V365.649c24.163-17.222,44.624-38.358,60.653-62.609l77.947,167.435 c3.281,6.954,10.184,11.188,17.435,11.188c1.604,0,3.224-0.299,4.798-0.915c9.97-3.852,13.707-15.149,8.548-23.94 l-135.503-228.442c6.526-17.317,10.11-36.234,10.11-56.076c0-54.834-33.775-102.148-81.99-121.139V12C267.999,5.373,262.626,0,255.999,0 z M255.999,224c-18.748,0-34,15.252-34,34s15.252,34,34,34s34-15.252,34-34S274.747,224,255.999,224z"/>
  </g>
</svg>